<svg width="622" height="126" viewBox="0 0 622 126" fill="none" xmlns="http://www.w3.org/2000/svg">
<path fill-rule="evenodd" clip-rule="evenodd" d="M92.08 58.59C111.39 35.83 93.08 0.850006 61.31 0.850006H10.2C4.98999 0.850006 0.73999 5.13001 0.73999 10.42V115.62C0.73999 120.9 4.98999 125.19 10.2 125.19H59.48C100.72 125.19 118.71 79.57 92.08 58.61V58.59ZM66.87 28.27L52.71 62.05H59.44C61.37 62.05 62.48 64.26 61.37 65.81L36.44 100.59C34.89 102.73 31.6 101.18 32.23 98.62L41.11 62.05H30.4C28.88 62.05 27.74 60.6 28.09 59.11L35.2 26.78C35.44 25.71 36.41 24.92 37.51 24.92H64.69C66.38 24.92 67.52 26.68 66.87 28.27Z" fill="url(#paint0_linear_2_7)"/>
<path d="M129.064 96V29.0909H156.964C161.974 29.0909 166.167 29.7988 169.543 31.2145C172.94 32.6302 175.489 34.6122 177.188 37.1605C178.908 39.7088 179.768 42.66 179.768 46.0142C179.768 48.5625 179.235 50.8385 178.168 52.8423C177.1 54.8243 175.63 56.4687 173.757 57.7756C171.884 59.0824 169.717 59.9972 167.256 60.5199V61.1733C169.956 61.304 172.45 62.0336 174.737 63.3622C177.046 64.6908 178.897 66.5421 180.291 68.9162C181.685 71.2685 182.382 74.0563 182.382 77.2798C182.382 80.8736 181.467 84.0862 179.638 86.9176C177.808 89.7273 175.162 91.9489 171.699 93.5824C168.236 95.1941 164.032 96 159.088 96H129.064ZM145.236 82.9645H155.233C158.74 82.9645 161.321 82.3002 162.976 80.9716C164.653 79.643 165.491 77.7917 165.491 75.4176C165.491 73.697 165.089 72.2159 164.283 70.9744C163.477 69.7112 162.333 68.7419 160.852 68.0668C159.371 67.3698 157.596 67.0213 155.527 67.0213H145.236V82.9645ZM145.236 56.5994H154.188C155.952 56.5994 157.52 56.3054 158.892 55.7173C160.264 55.1293 161.331 54.2798 162.094 53.169C162.878 52.0582 163.27 50.7187 163.27 49.1506C163.27 46.9072 162.475 45.143 160.885 43.858C159.295 42.5729 157.15 41.9304 154.449 41.9304H145.236V56.5994ZM253.31 62.5455C253.31 69.9072 251.894 76.1473 249.062 81.2656C246.231 86.384 242.398 90.2718 237.562 92.929C232.749 95.5862 227.348 96.9148 221.358 96.9148C215.347 96.9148 209.934 95.5753 205.121 92.8963C200.307 90.2173 196.485 86.3295 193.653 81.233C190.844 76.1146 189.439 69.8854 189.439 62.5455C189.439 55.1837 190.844 48.9437 193.653 43.8253C196.485 38.7069 200.307 34.8191 205.121 32.1619C209.934 29.5047 215.347 28.1761 221.358 28.1761C227.348 28.1761 232.749 29.5047 237.562 32.1619C242.398 34.8191 246.231 38.7069 249.062 43.8253C251.894 48.9437 253.31 55.1837 253.31 62.5455ZM236.778 62.5455C236.778 58.1894 236.158 54.5085 234.916 51.5028C233.696 48.4972 231.932 46.2211 229.624 44.6747C227.337 43.1283 224.581 42.3551 221.358 42.3551C218.156 42.3551 215.401 43.1283 213.092 44.6747C210.784 46.2211 209.009 48.4972 207.767 51.5028C206.547 54.5085 205.938 58.1894 205.938 62.5455C205.938 66.9015 206.547 70.5824 207.767 73.5881C209.009 76.5937 210.784 78.8698 213.092 80.4162C215.401 81.9626 218.156 82.7358 221.358 82.7358C224.581 82.7358 227.337 81.9626 229.624 80.4162C231.932 78.8698 233.696 76.5937 234.916 73.5881C236.158 70.5824 236.778 66.9015 236.778 62.5455ZM325.903 62.5455C325.903 69.9072 324.488 76.1473 321.656 81.2656C318.825 86.384 314.991 90.2718 310.156 92.929C305.343 95.5862 299.941 96.9148 293.952 96.9148C287.94 96.9148 282.528 95.5753 277.714 92.8963C272.901 90.2173 269.079 86.3295 266.247 81.233C263.438 76.1146 262.033 69.8854 262.033 62.5455C262.033 55.1837 263.438 48.9437 266.247 43.8253C269.079 38.7069 272.901 34.8191 277.714 32.1619C282.528 29.5047 287.94 28.1761 293.952 28.1761C299.941 28.1761 305.343 29.5047 310.156 32.1619C314.991 34.8191 318.825 38.7069 321.656 43.8253C324.488 48.9437 325.903 55.1837 325.903 62.5455ZM309.372 62.5455C309.372 58.1894 308.751 54.5085 307.51 51.5028C306.29 48.4972 304.526 46.2211 302.217 44.6747C299.93 43.1283 297.175 42.3551 293.952 42.3551C290.75 42.3551 287.995 43.1283 285.686 44.6747C283.377 46.2211 281.602 48.4972 280.361 51.5028C279.141 54.5085 278.531 58.1894 278.531 62.5455C278.531 66.9015 279.141 70.5824 280.361 73.5881C281.602 76.5937 283.377 78.8698 285.686 80.4162C287.995 81.9626 290.75 82.7358 293.952 82.7358C297.175 82.7358 299.93 81.9626 302.217 80.4162C304.526 78.8698 306.29 76.5937 307.51 73.5881C308.751 70.5824 309.372 66.9015 309.372 62.5455ZM335.345 96V29.0909H351.517V57.3835H352.399L374.517 29.0909H393.564L369.845 58.9517L393.989 96H374.648L357.986 69.7003L351.517 77.8679V96H335.345ZM416.115 29.0909V96H399.943V29.0909H416.115ZM483.212 29.0909V96H469.49L442.864 57.3835H442.439V96H426.267V29.0909H440.185L466.517 67.642H467.072V29.0909H483.212ZM537.289 50.9474C536.919 49.5753 536.375 48.3665 535.656 47.321C534.937 46.2538 534.055 45.3499 533.01 44.6094C531.964 43.8688 530.766 43.3134 529.416 42.9432C528.065 42.5511 526.584 42.3551 524.973 42.3551C521.727 42.3551 518.918 43.1392 516.544 44.7074C514.191 46.2756 512.373 48.5625 511.088 51.5682C509.803 54.5521 509.16 58.1785 509.16 62.4474C509.16 66.7382 509.781 70.3973 511.022 73.4247C512.264 76.4522 514.061 78.7609 516.413 80.3509C518.765 81.9408 521.618 82.7358 524.973 82.7358C527.935 82.7358 530.44 82.2566 532.487 81.2983C534.556 80.3182 536.124 78.9351 537.191 77.1491C538.259 75.3632 538.792 73.2614 538.792 70.8438L541.798 71.2031H525.528V59.4091H554.376V68.2628C554.376 74.2524 553.102 79.3816 550.554 83.6506C548.027 87.9195 544.542 91.1974 540.099 93.4844C535.678 95.7713 530.592 96.9148 524.842 96.9148C518.46 96.9148 512.852 95.5317 508.017 92.7656C503.181 89.9995 499.413 86.0573 496.713 80.9389C494.012 75.7988 492.662 69.7003 492.662 62.6435C492.662 57.1548 493.478 52.2869 495.112 48.0398C496.745 43.7708 499.021 40.1553 501.94 37.1932C504.88 34.2311 508.278 31.9877 512.133 30.4631C516.01 28.9384 520.181 28.1761 524.646 28.1761C528.523 28.1761 532.127 28.7315 535.46 29.8423C538.814 30.9531 541.776 32.5213 544.346 34.5469C546.938 36.5724 549.04 38.9792 550.652 41.767C552.263 44.5549 553.265 47.6151 553.657 50.9474H537.289ZM563.679 96V86.7869L596.186 42.2244H563.712V29.0909H616.638V38.304L584.131 82.8665H616.605V96H563.679Z" fill="white"/>
<defs>
<linearGradient id="paint0_linear_2_7" x1="105" y1="0.850003" x2="-30" y2="184.85" gradientUnits="userSpaceOnUse">
<stop offset="0.38" stop-color="#468EC4"/>
<stop offset="1" stop-color="#7EB58D"/>
</linearGradient>
</defs>
</svg>
